<?xml version="1.0" encoding="utf-8"?>
<!-- Generator: Adobe Illustrator 19.2.1, SVG Export Plug-In . SVG Version: 6.00 Build 0)  -->
<svg version="1.1" xmlns="http://www.w3.org/2000/svg" xmlns:xlink="http://www.w3.org/1999/xlink" x="0px" y="0px"
	 viewBox="0 0 420.5 713" style="enable-background:new 0 0 420.5 713;" xml:space="preserve">
<style type="text/css">
	.st0{fill:#15CEFF;stroke:#87FF55;stroke-miterlimit:10;}
</style>
<g id="_x2014_ÎÓÈ_x5F_1">
</g>
<g id="_x2014_ÎÓÈ_x5F_2">
	<path class="st0" d="M385.6,274.1c21.8-26.4,28.2-62.6,31-81c6.6-43.3,5.1-89.4-7-131.6C403.3,39.9,389.2,0,360.7,0
		c-34.7,0-39.8,51.4-60.6,75.9c-33.6,39.5-29.3,3-98.3,11.2c-40.4,4.8-78,23.9-105.3,54c-14.7-0.4-35.4,3-44,16.6
		C42.1,174,64.1,175.5,70.3,195c-1.9,13.2,3.2,25.1,3.2,25.1s-40,19.3-56.1,28.3c30.3-10.4,85.5-17.9,115.1,1.7
		c26.3,17.4,44.2,71.8,5,86.1c-18.2,6.6-19.9-4.5-28.2-15.5c15-22.8-41.4-30.7-35.4-4c5.7,26,65,6.5,48.6,44.9
		c-7.9,18.4-39.4,8.2-53.6,5.8c-17.3-2.9-27.4,18.1-41.6,12.7c-13.2-5-15.9-19.7-13.5-28.6c2.3-8.3,31.1-12.5,18.8-34.6
		C24.9,303.6,0,318.1,0,340.5c0,21.4,2,35.4,12.1,54.9c12.4,24,33.8,34.2,57.7,34.2c16.2,0,34.1-10.1,34.1-10.1s6.8,4.5,11.7,6.9
		c-10.8,15.2-18,32.4-21.2,50.8c7-16.9,16.9-32.9,28.7-46.8c12.3,16.5,18.1,6.3,35,19.6c-0.6,2.3-10.8,7.1-23.1,20.4
		c-14.4,15.5-32.4,48.8-5.5,61.9c-15.3-38.3,25.6-70.5,55.7-78.8c15.5-4.3,26.5-13.2,27-16.4c0,0,18.1-2.6,23.8-4.2
		c-18.4,29-52.3,20.2-64.2,76c-1.6,7.7-1.8,20.2-11.2,28c-14.2,11.7-35.4,17.7-58.1,0.9c79.9,73.6,188.4-98.4,199.2-144.8
		c-8.9,56.2-87.5,199.3-176.1,176.1c14.3,30.5,67,143.8,67,143.8c60.2,2.6,110.5-34,142-72.8C414.1,541.8,426.3,390.8,385.6,274.1z
		 M107.9,190.6c-14.8-6.6-33.3,6.2-28.8,22.7c-5.8-6.1-2.6-16.9,4.3-24C90.4,180.9,106,174.7,107.9,190.6z M266.3,188.2
		c-10.7-40.9,69.1-35.4,50,3.4C318.6,162.2,270,155.9,266.3,188.2z"/>
</g>
</svg>
